<svg width="24" height="24" viewBox="0 0 24 24" fill="none" xmlns="http://www.w3.org/2000/svg">
<g clip-path="url(#clip0_144_11)">
<path d="M8.35206 2.71827C8.08931 2.94213 8.05778 3.3366 8.28164 3.59935C8.50549 3.86209 8.89996 3.89362 9.16271 3.66977L8.35206 2.71827ZM7.64261 6.6078C7.67353 6.26401 7.4199 5.96024 7.0761 5.92932C6.73231 5.8984 6.42855 6.15204 6.39763 6.49583L7.64261 6.6078ZM9.16271 3.66977C11.0019 2.10278 13.7632 2.32348 15.3302 4.16272L16.2817 3.35206C14.267 0.987331 10.7168 0.703573 8.35206 2.71827L9.16271 3.66977ZM15.3302 4.16272C16.8972 6.00195 16.6765 8.76324 14.8373 10.3302L15.6479 11.2817C18.0127 9.26703 18.2964 5.7168 16.2817 3.35206L15.3302 4.16272ZM14.8373 10.3302C12.998 11.8972 10.2368 11.6765 8.66976 9.83728L7.71827 10.6479C9.73297 13.0127 13.2832 13.2964 15.6479 11.2817L14.8373 10.3302ZM8.66976 9.83728C7.87598 8.90559 7.54091 7.73853 7.64261 6.6078L6.39763 6.49583C6.2671 7.94726 6.69788 9.45027 7.71827 10.6479L8.66976 9.83728Z" fill="#29D799"/>
<path d="M18 15H8H6C4.343 15 3 16.343 3 18C3 19.657 4.343 21 6 21H18C19.657 21 21 19.657 21 18C21 16.343 19.657 15 18 15Z" stroke="#29D799" stroke-width="1.25"/>
</g>
<defs>
<clipPath id="clip0_144_11">
<path d="M0 12C0 5.37258 5.37258 0 12 0V0C18.6274 0 24 5.37258 24 12V24H0V12Z" fill="white"/>
</clipPath>
</defs>
</svg>
